<?xml version="1.0" encoding="UTF-8"?>
<svg version="1.1" xmlns="http://www.w3.org/2000/svg" width="1024" height="1024">
<path d="M0 0 C337.92 0 675.84 0 1024 0 C1024 337.92 1024 675.84 1024 1024 C686.08 1024 348.16 1024 0 1024 C0 686.08 0 348.16 0 0 Z " fill="#FDFDFD" transform="translate(0,0)"/>
<path d="M0 0 C0.70382812 0.56074219 1.40765625 1.12148437 2.1328125 1.69921875 C5.89869657 4.80485042 9.20521677 7.98249911 12 12 C11.93371006 15.14877214 10.84174542 16.16804625 8.6640625 18.48046875 C7.65951804 19.39223949 6.64589707 20.29407702 5.625 21.1875 C5.08625244 21.67017334 4.54750488 22.15284668 3.99243164 22.65014648 C-0.32066973 26.48352342 -4.7799114 30.12666855 -9.2734375 33.74609375 C-13.12155111 36.92712749 -16.78431482 40.29559614 -20.4609375 43.671875 C-24.97256119 47.80868687 -29.59985491 51.80610823 -34.25390625 55.78125 C-35.46097313 56.8124583 -36.66800337 57.84370948 -37.875 58.875 C-38.48359863 59.39473389 -39.09219727 59.91446777 -39.71923828 60.44995117 C-43.25642957 63.47905595 -46.74401054 66.55156303 -50.1875 69.6875 C-56.16243493 75.10846745 -62.27974387 80.51982925 -69 85 C-70.35757174 83.6701338 -71.71083496 82.33586929 -73.0625 81 C-73.81660156 80.2575 -74.57070313 79.515 -75.34765625 78.75 C-77.40863418 76.61313923 -79.35923804 74.45573725 -81.296875 72.2109375 C-85.09074744 67.84077415 -89.09834999 63.71798958 -93.1875 59.625 C-93.88552734 58.91472656 -94.58355469 58.20445312 -95.30273438 57.47265625 C-95.98013672 56.79332031 -96.65753906 56.11398437 -97.35546875 55.4140625 C-98.26268677 54.50068115 -98.26268677 54.50068115 -99.18823242 53.56884766 C-103.66652323 49.69100145 -107.63839164 49.62430632 -113.37890625 49.75390625 C-118.30544706 50.21645777 -120.65128844 52.4823502 -123.75 56.0625 C-126.58567523 59.76463155 -127.50533705 61.95837175 -127.37890625 66.6953125 C-125.79094867 76.35402354 -116.27081072 85.22249778 -110.3828125 92.6875 C-106.44186899 97.68954955 -102.71647928 102.83011187 -99 108 C-88.62953137 125.02313397 -88.62953137 125.02313397 -74 137 C-71.88349603 137.23295726 -71.88349603 137.23295726 -69.625 137.25 C-68.49964844 137.28867187 -68.49964844 137.28867187 -67.3515625 137.328125 C-61.61477316 136.52764277 -57.5620521 131.99037244 -53.5 128.1875 C-52.94441406 127.67896484 -52.38882813 127.17042969 -51.81640625 126.64648438 C-49.11703882 124.14083626 -46.60298804 121.60624728 -44.26953125 118.75390625 C-42.22711188 116.27558326 -40.12985162 114.50245709 -37.63671875 112.51171875 C-35.66316491 110.68888979 -34.13272471 108.69653038 -32.5 106.5625 C-28.41642962 101.29870696 -23.82683797 96.71517883 -19.08642578 92.05541992 C-14.83901598 87.87191125 -10.86577448 83.53857889 -7 79 C-4.6875 76.5 -4.6875 76.5 -3 75 C-2.34 75 -1.68 75 -1 75 C-0.76063721 74.43394043 -0.52127441 73.86788086 -0.2746582 73.28466797 C1.26948412 70.51698287 3.12945708 68.66244738 5.39453125 66.4453125 C6.26787109 65.58292969 7.14121094 64.72054687 8.04101562 63.83203125 C8.95560547 62.93871094 9.87019531 62.04539062 10.8125 61.125 C18.74223345 53.36937189 18.74223345 53.36937189 26 45 C29.73067611 41.0620641 33.77814265 37.56321032 37.9140625 34.0625 C41.72414661 30.29522583 43.33195111 27.02073338 43.6875 21.6875 C43.78611328 20.36298828 43.78611328 20.36298828 43.88671875 19.01171875 C43.92410156 18.34785156 43.96148438 17.68398438 44 17 C46 19 46 19 46.22265625 21.1015625 C45.75722943 28.43487291 43.32324691 32.07261098 38 37 C37.31035156 37.53753906 36.62070312 38.07507813 35.91015625 38.62890625 C33.8268239 40.34095165 32.35362233 41.65908218 31 44 C30.95985077 48.19846232 31.96790749 51.95419738 33 56 C40.4822749 98.2141861 19.24703561 133.78057453 -3.83203125 167.11328125 C-17.54688816 186.66374253 -32.88742113 205.08252467 -48.9375 222.75 C-49.46891602 223.34659424 -50.00033203 223.94318848 -50.54785156 224.55786133 C-54.09215781 228.41136846 -56.92396208 230.48370388 -62.2109375 231.37109375 C-67.28180436 231.52669797 -70.38656989 230.834695 -74.3359375 227.59765625 C-76.71745881 225.31117218 -78.87174857 222.88868781 -80.9921875 220.359375 C-82.92372507 218.08963046 -84.92412373 215.89777508 -86.95385742 213.71582031 C-92.56776737 207.67852839 -97.84658478 201.43751703 -103 195 C-103.93404903 193.85738016 -104.86899094 192.71548981 -105.8046875 191.57421875 C-137.30761105 152.95856615 -165.78586339 110.62540983 -162 59 C-161.30656333 53.77375977 -159.89269841 48.9183962 -158 44 C-157.69964844 43.12472656 -157.39929688 42.24945313 -157.08984375 41.34765625 C-152.96504506 30.04463647 -146.8473079 20.06394478 -139 11 C-138.39671875 10.25234375 -137.7934375 9.5046875 -137.171875 8.734375 C-122.43807856 -8.97094341 -99.89724996 -20.30336662 -77.11450195 -22.83447266 C-48.01545042 -25.11240326 -22.86974136 -18.39522674 0 0 Z " fill="#0663B8" transform="translate(580,249)"/>
<path d="M0 0 C8.25 0 16.5 0 25 0 C28.83985496 9.39753978 32.47270434 18.85555948 36 28.375 C36.4026709 29.46014893 36.8053418 30.54529785 37.22021484 31.66333008 C39.49163071 37.81656195 41.7071265 43.9868963 43.87890625 50.17578125 C46.84154331 58.61275634 49.92937497 67.00104794 53.0380249 75.38513184 C61.43569587 98.04750372 61.43569587 98.04750372 65.375 109.25 C65.654646 110.03995361 65.93429199 110.82990723 66.22241211 111.64379883 C68 116.75091167 68 116.75091167 68 119 C59.42 119 50.84 119 42 119 C40.68 115.08125 39.36 111.1625 38 107.125 C37.58234375 105.89023926 37.1646875 104.65547852 36.734375 103.38330078 C36.40953125 102.41376465 36.0846875 101.44422852 35.75 100.4453125 C35.24726563 98.95281982 35.24726563 98.95281982 34.734375 97.43017578 C34 95 34 95 34 93 C19.81 93 5.62 93 -9 93 C-9.99 96.63 -10.98 100.26 -12 104 C-12.70243602 106.54330281 -13.4098161 109.08525246 -14.125 111.625 C-14.45757812 112.81351563 -14.79015625 114.00203125 -15.1328125 115.2265625 C-16 118 -16 118 -17 119 C-18.85369611 119.08737645 -20.71067541 119.10698153 -22.56640625 119.09765625 C-23.69111328 119.09443359 -24.81582031 119.09121094 -25.97460938 119.08789062 C-27.15861328 119.07951172 -28.34261719 119.07113281 -29.5625 119.0625 C-30.75037109 119.05798828 -31.93824219 119.05347656 -33.16210938 119.04882812 C-36.10812226 119.03699675 -39.05403681 119.02051287 -42 119 C-41.44528238 115.28961493 -40.73436355 111.85406271 -39.4765625 108.3203125 C-39.1775 107.47339844 -38.8784375 106.62648438 -38.5703125 105.75390625 C-38.25835937 104.88636719 -37.94640625 104.01882813 -37.625 103.125 C-37.16867188 101.83529297 -37.16867188 101.83529297 -36.703125 100.51953125 C-35.3589731 96.73407783 -33.98797878 92.96079543 -32.57324219 89.20117188 C-31.02872913 85.09117812 -29.52822021 80.96626073 -28.0390625 76.8359375 C-27.76661713 76.08140289 -27.49417175 75.32686829 -27.21347046 74.54946899 C-26.64012679 72.96128634 -26.06702003 71.37301815 -25.49414062 69.78466797 C-24.63467241 67.40181649 -23.77443277 65.01924466 -22.9140625 62.63671875 C-20.35458254 55.54610554 -17.80228223 48.45316467 -15.2734375 41.3515625 C-13.82025896 37.27751964 -12.34984152 33.21297441 -10.81787109 29.16796875 C-8.78863149 23.78896945 -6.80801133 18.39158127 -4.8125 13 C-4.34441631 11.73567143 -3.87631747 10.47134847 -3.40820312 9.20703125 C-2.27198681 6.13807585 -1.13597307 3.06904545 0 0 Z " fill="#063585" transform="translate(241,521)"/>
<path d="M0 0 C7.92 0 15.84 0 24 0 C24 38.94 24 77.88 24 118 C17.4 118 10.8 118 4 118 C3.34 114.04 2.68 110.08 2 106 C1.01 107.2375 0.02 108.475 -1 109.75 C-5.82402599 115.28978595 -11.82643726 118.64587953 -19.22265625 119.2734375 C-30.10364454 119.56123577 -37.21615755 117.73517656 -45.375 110.25 C-53.68715616 101.28558209 -56.65698736 88.05084704 -56.28125 76.07421875 C-55.05197294 62.63753758 -50.74750795 52.41662405 -40.3125 43.69140625 C-33.73082251 38.87744281 -27.48600018 36.80412279 -19.375 36.8125 C-18.30064697 36.81262085 -18.30064697 36.81262085 -17.20458984 36.81274414 C-11.24477549 36.87680641 -5.4296021 37.28519895 0 40 C0 26.8 0 13.6 0 0 Z " fill="#083686" transform="translate(649,522)"/>
<path d="M0 0 C0.91990723 0.01023193 1.83981445 0.02046387 2.78759766 0.03100586 C12.04502435 0.31892406 19.6160517 2.47022042 26.625 8.75 C37.00833592 20.35191813 35.6875 32.01519715 35.6875 47.5625 C18.8575 47.5625 2.0275 47.5625 -15.3125 47.5625 C-12.19748319 57.80104387 -12.19748319 57.80104387 -5.3125 63.5625 C4.77212203 66.92404068 15.82984992 64.89886299 25.24609375 60.65625 C27.6875 59.5625 27.6875 59.5625 29.6875 59.5625 C29.6875 65.5025 29.6875 71.4425 29.6875 77.5625 C20.20122677 81.62804567 12.51598432 82.92394755 2.25 82.9375 C1.27740234 82.96199219 0.30480469 82.98648438 -0.69726562 83.01171875 C-11.91046438 83.05666143 -22.00539985 78.70103622 -30.06640625 70.85546875 C-39.08353719 60.12078905 -39.46395312 45.88690332 -38.3125 32.5625 C-37.75620074 28.93046354 -36.86969325 25.88411754 -35.3125 22.5625 C-34.92191406 21.72589844 -34.53132813 20.88929688 -34.12890625 20.02734375 C-27.14753508 6.91502338 -14.63858934 -0.24563193 0 0 Z " fill="#053485" transform="translate(458.3125,558.4375)"/>
<path d="M0 0 C1.08764648 -0.01740234 1.08764648 -0.01740234 2.19726562 -0.03515625 C9.50649255 0.00424659 15.1725991 2.27644509 20.5625 7.375 C27.14194135 15.83428174 26.84122367 23.87051493 26.7578125 34.18359375 C26.75407667 35.51880175 26.75123239 36.85401251 26.74923706 38.18922424 C26.74164541 41.68268566 26.72203606 45.17597755 26.6998291 48.66937256 C26.67927371 52.24244901 26.67021473 55.81555318 26.66015625 59.38867188 C26.63878532 66.38419073 26.60364028 73.37956974 26.5625 80.375 C19.3025 80.375 12.0425 80.375 4.5625 80.375 C4.51351562 76.91902344 4.46453125 73.46304688 4.4140625 69.90234375 C4.3600018 66.54300734 4.30271424 63.18374031 4.24511719 59.82446289 C4.20691221 57.49573976 4.17204474 55.16695933 4.140625 52.83813477 C4.09479038 49.4843299 4.03682575 46.13091665 3.9765625 42.77734375 C3.96501129 41.74165756 3.95346008 40.70597137 3.94155884 39.63890076 C3.76901796 30.27383263 3.76901796 30.27383263 -0.203125 21.98046875 C-3.0145252 19.96038924 -4.74085821 19.7455393 -8.1875 19.6875 C-9.17234375 19.64238281 -10.1571875 19.59726562 -11.171875 19.55078125 C-16.13065265 20.80233877 -19.36131645 23.2900989 -22.4375 27.375 C-23.57487623 31.54710452 -23.51048241 35.56708096 -23.4375 39.87109375 C-23.4538147 41.65411644 -23.4538147 41.65411644 -23.47045898 43.47315979 C-23.49656552 47.25386823 -23.46780088 51.03186451 -23.4375 54.8125 C-23.44559347 57.38217543 -23.45727211 59.95184225 -23.47265625 62.52148438 C-23.50919205 68.8076723 -23.47147652 75.08722081 -23.4375 81.375 C-31.3575 81.375 -39.2775 81.375 -47.4375 81.375 C-47.4375 54.975 -47.4375 28.575 -47.4375 1.375 C-40.5075 1.375 -33.5775 1.375 -26.4375 1.375 C-25.4475 5.005 -24.4575 8.635 -23.4375 12.375 C-22.56738281 11.45267578 -22.56738281 11.45267578 -21.6796875 10.51171875 C-20.89851562 9.70347656 -20.11734375 8.89523437 -19.3125 8.0625 C-18.54679688 7.26199219 -17.78109375 6.46148438 -16.9921875 5.63671875 C-11.56102169 0.82839305 -6.98585868 -0.11118077 0 0 Z " fill="#073484" transform="translate(553.4375,558.625)"/>
<path d="M0 0 C3.4431146 2.09580889 5.7468218 4.1265401 7 8 C7.48919208 11.75047263 7.21554577 13.59207963 5.4375 16.95703125 C2.59514654 20.50541803 -0.31671118 22.02909972 -4.375 23.8125 C-31.65206757 36.68150521 -55.19660659 58.28466065 -66 87 C-66.43957031 88.15886719 -66.87914062 89.31773437 -67.33203125 90.51171875 C-71.13853152 100.98299559 -72.73964141 111.33253683 -73.375 122.4375 C-73.77442202 127.68604545 -74.80575056 130.8018436 -78 135 C-80.8098279 136.73548194 -83.14872483 137.36320519 -86.4375 137.5 C-87.17871094 137.5515625 -87.91992188 137.603125 -88.68359375 137.65625 C-91.64283421 136.81788171 -93.17069834 135.25585665 -95.01196289 132.83251953 C-96.76304237 129.58477983 -96.64870837 126.26659587 -96.5 122.6875 C-96.4801001 121.89843262 -96.4602002 121.10936523 -96.43969727 120.29638672 C-95.0405094 83.07130911 -75.7280261 50.23546872 -49.0625 25.25 C-39.85426275 17.27242339 -29.88343844 11.18460931 -19.1875 5.4375 C-17.71953979 4.63155396 -17.71953979 4.63155396 -16.22192383 3.80932617 C-10.50845966 0.81804227 -6.46605499 -0.83456378 0 0 Z " fill="#04BBDC" transform="translate(423,237)"/>
<path d="M0 0 C8.91 0 17.82 0 27 0 C36.92027335 17.61958998 36.92027335 17.61958998 41 25 C43.29654537 22.14181972 44.824905 19.36742615 46.29296875 16.015625 C52.02286044 4.20312343 52.02286044 4.20312343 57 0 C64.71484158 -2.54826643 73.12229808 -1.31471612 81 0 C79.81327699 3.18019898 78.55414662 5.89446343 76.56640625 8.64453125 C75.84735107 9.6485498 75.84735107 9.6485498 75.11376953 10.67285156 C74.34589111 11.73197754 74.34589111 11.73197754 73.5625 12.8125 C72.4880496 14.32405411 71.41383688 15.8357772 70.33984375 17.34765625 C68.14722338 20.41500929 65.927209 23.460123 63.69140625 26.49609375 C62.66890271 27.91379707 61.64675304 29.33175569 60.625 30.75 C60.1307251 31.40460205 59.6364502 32.0592041 59.12719727 32.73364258 C56.52375773 36.27697397 56.52375773 36.27697397 56.40625 40.5 C56.9321875 41.325 57.458125 42.15 58 43 C58.33692871 43.53141602 58.67385742 44.06283203 59.02099609 44.61035156 C60.26473147 46.52129096 61.56254916 48.38562674 62.875 50.25 C63.35316162 50.93803711 63.83132324 51.62607422 64.32397461 52.33496094 C66.9700578 56.13380596 69.64442306 59.91238788 72.32421875 63.6875 C73.13560303 64.8317041 73.13560303 64.8317041 73.96337891 65.99902344 C75.01069659 67.47326299 76.06104288 68.94535675 77.11474609 70.41503906 C77.59379395 71.08760742 78.0728418 71.76017578 78.56640625 72.453125 C78.98865479 73.04254883 79.41090332 73.63197266 79.84594727 74.23925781 C81 76 81 76 83 80 C74.09 80 65.18 80 56 80 C54.68 77.36 53.36 74.72 52 72 C51.11038504 70.49300936 50.19504238 69.00043565 49.23828125 67.53515625 C48.75939453 66.79845703 48.28050781 66.06175781 47.78710938 65.30273438 C47.30048828 64.56345703 46.81386719 63.82417969 46.3125 63.0625 C45.81427734 62.29615234 45.31605469 61.52980469 44.80273438 60.74023438 C42.62536323 57.19465354 42.62536323 57.19465354 40 54 C39.43152344 55.03898438 38.86304688 56.07796875 38.27734375 57.1484375 C37.49768823 58.5574535 36.71772342 59.96629839 35.9375 61.375 C35.3815918 62.39400391 35.3815918 62.39400391 34.81445312 63.43359375 C34.02116969 64.86017069 33.20549019 66.27446476 32.37084961 67.67724609 C31.39049496 69.33834923 30.4674765 71.03382472 29.58422852 72.74853516 C25.67148706 79.54412711 25.67148706 79.54412711 21.09790039 80.79150391 C17.69877564 80.98503929 14.45725773 80.8758917 11.0625 80.625 C9.90169922 80.57988281 8.74089844 80.53476562 7.54492188 80.48828125 C4.69125335 80.37084633 1.84834033 80.20697834 -1 80 C0.15758454 76.88934385 1.33247731 74.27063282 3.36328125 71.64453125 C3.83233887 71.0306958 4.30139648 70.41686035 4.78466797 69.78442383 C5.28885254 69.13368896 5.79303711 68.4829541 6.3125 67.8125 C7.38490261 66.39642977 8.45648498 64.97973807 9.52734375 63.5625 C11.29982572 61.22833389 13.07786046 58.89903585 14.86767578 56.578125 C16.72037877 54.16860395 18.54898703 51.74228135 20.375 49.3125 C21.25925659 48.1819519 21.25925659 48.1819519 22.16137695 47.02856445 C25.29309496 43.11779814 25.29309496 43.11779814 25.640625 38.390625 C25.09921875 37.60171875 24.5578125 36.8128125 24 36 C23.30648437 34.96746094 22.61296875 33.93492187 21.8984375 32.87109375 C21.06193904 31.72316151 20.22055539 30.57877743 19.375 29.4375 C15.37678671 23.9504669 11.5597273 18.37637403 7.828125 12.703125 C5.68803109 9.53871264 3.40471087 6.51551317 1.03125 3.5234375 C0 2 0 2 0 0 Z " fill="#083686" transform="translate(726,560)"/>
<path d="M0 0 C0 8.25 0 16.5 0 25 C5.94 25 11.88 25 18 25 C18 30.61 18 36.22 18 42 C12.06 42 6.12 42 0 42 C0.07393597 47.78485226 0.15670528 53.56813943 0.26245117 59.35229492 C0.29572486 61.32031171 0.32374915 63.28842449 0.34643555 65.2565918 C0.37993678 68.08423812 0.43224963 70.91100282 0.48828125 73.73828125 C0.49467117 74.61962234 0.5010611 75.50096344 0.50764465 76.40901184 C0.53733589 77.6399482 0.53733589 77.6399482 0.56762695 78.89575195 C0.58428154 79.97830009 0.58428154 79.97830009 0.60127258 81.0827179 C1.12071471 83.58045707 1.9745852 84.48120981 4 86 C7.43080118 86.36398618 7.43080118 86.36398618 11.1875 86.1875 C14.5596875 86.0946875 14.5596875 86.0946875 18 86 C18 91.61 18 97.22 18 103 C12.29275098 104.90241634 8.46201555 105.3658223 2.625 105.375 C1.81289063 105.39949219 1.00078125 105.42398438 0.1640625 105.44921875 C-6.685126 105.48214754 -11.69600696 103.67891328 -17.0234375 99.359375 C-17.46945312 98.82828125 -17.91546875 98.2971875 -18.375 97.75 C-19.06722656 96.96882812 -19.06722656 96.96882812 -19.7734375 96.171875 C-23.38144857 89.78316751 -23.27511521 82.71511022 -23.1953125 75.59375 C-23.1924826 74.6284436 -23.18965271 73.66313721 -23.18673706 72.6685791 C-23.17562124 69.61225522 -23.15053285 66.55623399 -23.125 63.5 C-23.11495908 61.41667093 -23.10583518 59.33333722 -23.09765625 57.25 C-23.07571011 52.16655163 -23.04124017 47.08332697 -23 42 C-26.63 42 -30.26 42 -34 42 C-34 36.06 -34 30.12 -34 24 C-30.04 24 -26.08 24 -22 24 C-22.04125 22.7625 -22.0825 21.525 -22.125 20.25 C-22.13430087 14.40905326 -21.26685037 8.6962031 -20 3 C-18.33880868 1.33880868 -16.20511008 1.35858303 -13.9375 0.9375 C-13.01839844 0.76089844 -12.09929687 0.58429687 -11.15234375 0.40234375 C-7.46241092 -0.06861422 -3.71986636 0 0 0 Z " fill="#063484" transform="translate(340,536)"/>
<path d="M0 0 C0 8.25 0 16.5 0 25 C6.27 25 12.54 25 19 25 C19 30.61 19 36.22 19 42 C12.73 42 6.46 42 0 42 C0.07422502 47.14200191 0.15725324 52.28233543 0.26245117 57.42358398 C0.29557767 59.17023899 0.32364737 60.91699788 0.34643555 62.66381836 C0.38020881 65.1838787 0.43253347 67.70299752 0.48828125 70.22265625 C0.49467117 70.99585709 0.5010611 71.76905792 0.50764465 72.56568909 C0.64524884 77.71165178 1.5060549 81.45970325 4 86 C9.47711223 87.82570408 14.35821709 86.94029715 20 86 C20 91.61 20 97.22 20 103 C14.43608556 105.22556578 10.49861394 105.33289449 4.625 105.3125 C3.70460938 105.32861328 2.78421875 105.34472656 1.8359375 105.36132812 C-5.19939102 105.36635336 -9.64333096 104.02961384 -15.6875 100.375 C-21.07994696 94.83681123 -22.45560873 88.35456354 -22.45318604 80.81443787 C-22.43254089 79.83282181 -22.41189575 78.85120575 -22.390625 77.83984375 C-22.38496521 76.80936417 -22.37930542 75.77888458 -22.37347412 74.71717834 C-22.35125474 71.45679371 -22.30108508 68.19754708 -22.25 64.9375 C-22.22991636 62.71420869 -22.21166887 60.49089998 -22.1953125 58.26757812 C-22.15143723 52.84462001 -22.08251013 47.4225023 -22 42 C-25.63 42 -29.26 42 -33 42 C-33 36.06 -33 30.12 -33 24 C-29.37 24 -25.74 24 -22 24 C-21.87625 22.783125 -21.7525 21.56625 -21.625 20.3125 C-20.94891304 14.17872556 -19.96998113 8.09298824 -19 2 C-17.33524314 1.65725594 -15.66804677 1.32635698 -14 1 C-13.071875 0.814375 -12.14375 0.62875 -11.1875 0.4375 C-8 0 -8 0 0 0 Z " fill="#053384" transform="translate(393,536)"/>
<path d="M0 0 C1.67130705 0.13619522 3.34294896 0.26834027 5.01489258 0.39648438 C9.06894479 0.71761651 13.11592767 1.09099838 17.16357422 1.48394775 C20.12744952 1.76469429 23.09444019 1.99870473 26.0625 2.23046875 C48.67145757 4.09120084 48.67145757 4.09120084 57.3125 8.6875 C57.6425 9.6775 57.9725 10.6675 58.3125 11.6875 C57.1575 12.14125 56.0025 12.595 54.8125 13.0625 C54.1628125 13.31773437 53.513125 13.57296875 52.84375 13.8359375 C26.47570521 22.70666862 -4.68988576 19.89901789 -32.14135742 19.92773438 C-35.69419727 19.93210083 -39.24679181 19.94595166 -42.79956055 19.96875 C-60.86116788 20.08205745 -78.82484024 20.00239652 -96.82421875 18.359375 C-98.11374954 18.24265442 -99.40328033 18.12593384 -100.73188782 18.00567627 C-124.38326992 15.60401251 -124.38326992 15.60401251 -128.60990906 12.08856201 C-128.96551407 11.62621155 -129.32111908 11.16386108 -129.6875 10.6875 C-123.41445043 3.25507493 -108.99308165 3.72115316 -99.82714844 2.93017578 C-92.95213193 2.3987787 -86.07055305 1.97390404 -79.1875 1.5625 C-78.07794952 1.49565506 -78.07794952 1.49565506 -76.94598389 1.42745972 C-70.25293922 1.02986137 -63.55482787 0.64852171 -56.8515625 0.484375 C-56.1085791 0.4647168 -55.3655957 0.44505859 -54.60009766 0.42480469 C-52.6875 0.6875 -52.6875 0.6875 -49.5625 3.0625 C-47.6875 5.6875 -47.6875 5.6875 -47.6875 7.6875 C-47.089375 7.97625 -46.49125 8.265 -45.875 8.5625 C-43.6875 9.6875 -43.6875 9.6875 -40.6875 11.6875 C-35.10098101 12.50685612 -30.36136868 11.96915248 -25.6875 8.6875 C-25.22053711 7.96771973 -24.75357422 7.24793945 -24.27246094 6.50634766 C-18.01977193 -2.76988181 -9.89433708 -1.00708709 0 0 Z " fill="#D9E0ED" transform="translate(551.6875,467.3125)"/>
<path d="M0 0 C-0.26941406 0.66902344 -0.53882813 1.33804687 -0.81640625 2.02734375 C-2.21144787 5.53106214 -3.58967075 9.04038611 -4.9375 12.5625 C-5.20908936 13.26777832 -5.48067871 13.97305664 -5.76049805 14.69970703 C-7.33935303 18.9026885 -8.4747771 22.95113456 -9.3125 27.375 C-10.63852785 33.15213888 -13.44095996 36.09833891 -17.52734375 40.2578125 C-28.75328699 52.70743675 -36.49510508 71.00060239 -37.375 87.625 C-37.73283988 93.04282135 -38.25467044 96.04065161 -42 100 C-45.4094043 102.58644464 -48.8386449 102.36503115 -53 102 C-56.83078608 100.29742841 -58.45148597 98.84740931 -60 95 C-63.28145222 72.41139867 -51.75230861 47.82754515 -39 30 C-30.85369403 19.5524025 -14.00659818 0 0 0 Z " fill="#07A3DD" transform="translate(419,272)"/>
<path d="M0 0 C7.59 0 15.18 0 23 0 C23 26.4 23 52.8 23 80 C15.41 80 7.82 80 0 80 C0 53.6 0 27.2 0 0 Z " fill="#063585" transform="translate(692,560)"/>
<path d="M0 0 C1.90265625 -0.01546875 1.90265625 -0.01546875 3.84375 -0.03125 C8.18650085 0.59974799 10.17466625 1.6507013 13.5 4.5 C14.26049805 7.79638672 14.26049805 7.79638672 14.26171875 11.6796875 C14.26508743 12.37007111 14.26845612 13.06045471 14.27192688 13.77175903 C14.27162854 15.22926291 14.2564263 16.68683021 14.22729492 18.14404297 C14.18772607 20.36232629 14.20654656 22.57459146 14.23242188 24.79296875 C14.22485859 26.21356465 14.21390088 27.63414734 14.19921875 29.0546875 C14.18721436 30.33843262 14.17520996 31.62217773 14.1628418 32.94482422 C13.1491116 38.38200254 10.38118393 41.15629719 5.875 44.375 C-0.19587524 46.39862508 -6.0047111 46.54348445 -11.9375 44.0625 C-17.07934484 38.92065516 -19.58987345 31.60738233 -19.75 24.375 C-19.67085002 17.52287291 -17.81458335 9.93317904 -13.5 4.5 C-8.92145502 0.85073008 -5.82945559 -0.04739395 0 0 Z " fill="#F8F9FB" transform="translate(636.5,576.5)"/>
<path d="M0 0 C0.33 0 0.66 0 1 0 C1.27972656 1.13953125 1.55945313 2.2790625 1.84765625 3.453125 C4.28653329 13.15581669 7.08329056 22.5962927 10.58813477 31.97167969 C12.70505472 37.73604013 13.76315972 42.81579862 15 49 C5.1 49 -4.8 49 -15 49 C-11.63061186 36.64557681 -11.63061186 36.64557681 -9.58984375 30.64453125 C-9.37687149 30.01318771 -9.16389923 29.38184418 -8.94447327 28.73136902 C-8.27849145 26.75737833 -7.60854523 24.78477465 -6.9375 22.8125 C-3.06099108 11.52645521 -3.06099108 11.52645521 0 0 Z " fill="#F2F4F8" transform="translate(253,546)"/>
<path d="M0 0 C0.33 0 0.66 0 1 0 C1.07516846 0.68513672 1.15033691 1.37027344 1.2277832 2.07617188 C1.57869653 5.21874258 1.94547308 8.35927212 2.3125 11.5 C2.43044922 12.57765625 2.54839844 13.6553125 2.66992188 14.765625 C3.41222504 21.00858497 4.67517882 26.178393 7 32 C7.69605428 36.41994468 8.08320452 40.94592327 5.9453125 45 C3.66166131 47.81064762 1.62840576 49.74726119 -1.98828125 50.30859375 C-6.36284207 50.55121645 -8.40461302 50.42527641 -12.0625 47.8125 C-16.0946432 41.82028718 -14.53116296 33.88133651 -13.30078125 27.20703125 C-10.88441834 17.20512401 -7.11259614 7.63945511 0 0 Z " fill="#073282" transform="translate(405,324)"/>
<path d="M0 0 C3.8026029 2.0050088 5.61790841 3.42686262 8 7 C8.65192402 11.37132214 9.00981874 15.99201428 6.984375 20.01953125 C4.86447542 22.64386477 3.20940964 23.93019679 0 25 C-5.10046956 25.48162329 -9.50516956 25.82368208 -14.0625 23.3125 C-17.53995351 19.16199097 -18.52116732 15.46711646 -18.38671875 9.99609375 C-17.6728968 6.31161885 -15.68732737 4.56517612 -13 2 C-8.77268648 -0.53986738 -4.81824305 -0.69309215 0 0 Z " fill="#063383" transform="translate(708,522)"/>
<path d="M0 0 C1.32 0 2.64 0 4 0 C4 10.56 4 21.12 4 32 C2.68 32 1.36 32 0 32 C0 31.34 0 30.68 0 30 C-0.66 30 -1.32 30 -2 30 C-2.33 30.99 -2.66 31.98 -3 33 C-7.13998349 33.32470459 -9.33999001 33.4304413 -12.875 31.125 C-15.85584495 28.14415505 -16.21272496 26.36928959 -16.375 22.25 C-16.31917523 18.74826435 -16.08502823 16.28021238 -14.0625 13.375 C-10.39073949 10.52751226 -8.48721431 10.44188559 -3.98828125 10.69140625 C-2 11 -2 11 0 12 C0 8.04 0 4.08 0 0 Z " fill="#636F7D" transform="translate(651,675)"/>
<path d="M0 0 C4.83761949 2.46817321 6.33926105 5.93037585 8 11 C8 12.98 8 14.96 8 17 C-1.9 17 -11.8 17 -22 17 C-20.89617958 10.37707749 -19.5204456 5.19787736 -14.0078125 0.91796875 C-9.57216541 -1.1100022 -4.72436478 -0.70334644 0 0 Z " fill="#F3F5F9" transform="translate(465,575)"/>
<path d="M0 0 C1.65 0 3.3 0 5 0 C6.67792905 4.07879561 8.34037223 8.16372731 10 12.25 C10.47695313 13.40886719 10.95390625 14.56773437 11.4453125 15.76171875 C11.89648438 16.87675781 12.34765625 17.99179687 12.8125 19.140625 C13.23144531 20.16704102 13.65039062 21.19345703 14.08203125 22.25097656 C15 25 15 25 15 29 C13.35 28.67 11.7 28.34 10 28 C9.67 26.02 9.34 24.04 9 22 C4.71 22 0.42 22 -4 22 C-4.33 23.32 -4.66 24.64 -5 26 C-5.33 26.99 -5.66 27.98 -6 29 C-7.65 29 -9.3 29 -11 29 C-7.62005381 19.19699457 -4.1420489 9.51205035 0 0 Z " fill="#6B7683" transform="translate(542,678)"/>
<path d="M0 0 C1.32 0 2.64 0 4 0 C4.33 0.66 4.66 1.32 5 2 C5.66 1.34 6.32 0.68 7 0 C14.30434783 -0.46376812 14.30434783 -0.46376812 18 2 C18.66 1.34 19.32 0.68 20 0 C27.26459566 -0.57655521 27.26459566 -0.57655521 29.60498047 1.25830078 C31.34053332 3.42516008 31.35138156 4.48506691 31.29296875 7.23046875 C31.28330078 8.03291016 31.27363281 8.83535156 31.26367188 9.66210938 C31.23853516 10.49548828 31.21339844 11.32886719 31.1875 12.1875 C31.16719727 13.4549707 31.16719727 13.4549707 31.14648438 14.74804688 C31.11115799 16.83230384 31.05735139 18.91623277 31 21 C29.68 21 28.36 21 27 21 C26.93941406 19.94039062 26.87882812 18.88078125 26.81640625 17.7890625 C26.73199873 16.40102779 26.64735083 15.01300768 26.5625 13.625 C26.52318359 12.92632813 26.48386719 12.22765625 26.44335938 11.5078125 C26.25719866 7.62639508 26.25719866 7.62639508 25 4 C21.70924004 4.37904208 21.70924004 4.37904208 19 6 C18.76321284 8.69235776 18.57801975 11.36498156 18.4375 14.0625 C18.39431641 14.82111328 18.35113281 15.57972656 18.30664062 16.36132812 C18.20026367 18.24065438 18.09960066 20.12030244 18 22 C16.35 22 14.7 22 13 22 C12.67 16.39 12.34 10.78 12 5 C10.35 4.67 8.7 4.34 7 4 C4.15385976 6.84614024 4.54420924 9.80369142 4.375 13.625 C4.33632813 14.33140625 4.29765625 15.0378125 4.2578125 15.765625 C4.16352276 17.50998524 4.08067109 19.25495691 4 21 C2.68 21 1.36 21 0 21 C0 14.07 0 7.14 0 0 Z " fill="#737E89" transform="translate(275,686)"/>
<path d="M0 0 C1.74861792 -0.10853491 3.49919241 -0.18583428 5.25 -0.25 C6.22453125 -0.29640625 7.1990625 -0.3428125 8.203125 -0.390625 C11 0 11 0 13.34375 1.5625 C15.61802869 4.90955165 15.39835679 7.24436654 15.25 11.25 C15.21390625 12.51328125 15.1778125 13.7765625 15.140625 15.078125 C15.07101562 16.52445313 15.07101562 16.52445313 15 18 C15.66 18 16.32 18 17 18 C17 19.32 17 20.64 17 22 C15.02 22 13.04 22 11 22 C11 21.34 11 20.68 11 20 C10.484375 20.33 9.96875 20.66 9.4375 21 C6.09763163 22.37020241 3.57400356 22.3898913 0 22 C-2.37466282 19.93174529 -2.88685647 18.56571765 -3.5 15.5 C-3 13 -3 13 -0.625 10.75 C3.27856108 8.14762595 5.31416354 7.89813399 10 8 C9.67 6.68 9.34 5.36 9 4 C3.91696314 3.88679144 3.91696314 3.88679144 -1 5 C-0.67 3.35 -0.34 1.7 0 0 Z " fill="#969EA7" transform="translate(313,686)"/>
<path d="M0 0 C1.76949095 -0.10815225 3.54087487 -0.18566083 5.3125 -0.25 C6.29863281 -0.29640625 7.28476562 -0.3428125 8.30078125 -0.390625 C11 0 11 0 12.84375 1.5625 C14.42762369 4.90147697 14.28963827 7.57302218 14.1875 11.25 C14.16042969 12.51328125 14.13335938 13.7765625 14.10546875 15.078125 C14.07066406 16.04234375 14.03585937 17.0065625 14 18 C14.66 18 15.32 18 16 18 C16 19.32 16 20.64 16 22 C12.95613276 22.08226668 10.92824652 21.97608217 8 21 C7.34 21.33 6.68 21.66 6 22 C0.78346028 22.44396083 0.78346028 22.44396083 -1.875 20.9375 C-3.64273274 17.8930714 -3.36823916 15.4368988 -3 12 C-1.32497949 9.65933616 -0.35973838 9.07421374 2.48046875 8.48828125 C3.37378906 8.43027344 4.26710938 8.37226562 5.1875 8.3125 C6.08855469 8.24675781 6.98960937 8.18101562 7.91796875 8.11328125 C8.94857422 8.05720703 8.94857422 8.05720703 10 8 C9.34 6.68 8.68 5.36 8 4 C4.65747276 3.92572162 2.1964086 3.93453047 -1 5 C-0.67 3.35 -0.34 1.7 0 0 Z " fill="#697483" transform="translate(663,686)"/>
<path d="M0 0 C2.5625 1.5 2.5625 1.5 4 4 C4.31058001 6.75837161 4.18622842 9.20657373 4 12 C-0.62 12 -5.24 12 -10 12 C-9.01 13.65 -8.02 15.3 -7 17 C-4.49638211 17.6029084 -4.49638211 17.6029084 -1.8125 17.3125 C-0.91144531 17.26738281 -0.01039063 17.22226562 0.91796875 17.17578125 C1.60503906 17.11777344 2.29210937 17.05976562 3 17 C3 18.32 3 19.64 3 21 C-0.7566122 22.8783061 -4.91815413 22.64079213 -9 22 C-12.71739281 19.24912932 -13.68106259 17.81794323 -14.46875 13.328125 C-14.71986943 8.6824155 -14.50611757 5.83264503 -12.0625 1.8125 C-7.93723026 -0.62898617 -4.68089022 -0.91696543 0 0 Z " fill="#636E7C" transform="translate(603,686)"/>
<path d="M0 0 C2.5625 1.5 2.5625 1.5 4 4 C4.31058001 6.75837161 4.18622842 9.20657373 4 12 C-0.62 12 -5.24 12 -10 12 C-9.01 13.65 -8.02 15.3 -7 17 C-4.49638211 17.6029084 -4.49638211 17.6029084 -1.8125 17.3125 C-0.91144531 17.26738281 -0.01039063 17.22226562 0.91796875 17.17578125 C1.60503906 17.11777344 2.29210937 17.05976562 3 17 C3 18.32 3 19.64 3 21 C-0.19123774 22.59561887 -3.52745091 22.3799142 -7 22 C-10.58552881 20.36312815 -11.79315055 19.31027417 -14 16 C-14.77216935 10.74924843 -14.8503741 6.39900256 -12.0625 1.8125 C-7.93723026 -0.62898617 -4.68089022 -0.91696543 0 0 Z " fill="#6B7784" transform="translate(504,686)"/>
<path d="M0 0 C2.5625 1.5 2.5625 1.5 4 4 C4.31058001 6.75837161 4.18622842 9.20657373 4 12 C-0.62 12 -5.24 12 -10 12 C-9.01 13.65 -8.02 15.3 -7 17 C-4.49638211 17.6029084 -4.49638211 17.6029084 -1.8125 17.3125 C-0.91144531 17.26738281 -0.01039063 17.22226562 0.91796875 17.17578125 C1.60503906 17.11777344 2.29210937 17.05976562 3 17 C3 18.32 3 19.64 3 21 C-1.56598329 22.52199443 -5.39892714 22.74716734 -9.8125 20.6875 C-12.55081867 18.57508274 -13.86244576 16.93536886 -14.37109375 13.4765625 C-14.47982897 8.80734423 -14.5311044 5.8737524 -12.0625 1.8125 C-7.93723026 -0.62898617 -4.68089022 -0.91696543 0 0 Z " fill="#707985" transform="translate(423,686)"/>
<path d="M0 0 C2.09375 0.4453125 2.09375 0.4453125 4.65625 1.9453125 C6.75117367 5.58865801 6.37144546 8.27988057 6.09375 12.4453125 C1.47375 12.4453125 -3.14625 12.4453125 -7.90625 12.4453125 C-5.61967943 17.54753198 -5.61967943 17.54753198 -2.42578125 18.15234375 C-1.53246094 18.18714844 -0.63914062 18.22195313 0.28125 18.2578125 C1.18230469 18.30550781 2.08335937 18.35320313 3.01171875 18.40234375 C3.69878906 18.41652344 4.38585937 18.43070313 5.09375 18.4453125 C5.09375 19.4353125 5.09375 20.4253125 5.09375 21.4453125 C1.37939844 22.68342969 -2.05338935 23.13627386 -5.90625 22.4453125 C-9.08068754 19.87874598 -11.59781276 17.64843564 -12.1796875 13.4921875 C-12.35838216 9.45093909 -12.33129285 6.28454945 -9.96875 2.8828125 C-6.36622699 0.01549827 -4.48835826 -0.34410747 0 0 Z " fill="#747E8A" transform="translate(737.90625,685.5546875)"/>
<path d="M0 0 C1.17369141 -0.00386719 1.17369141 -0.00386719 2.37109375 -0.0078125 C4.5625 0.125 4.5625 0.125 7.5625 1.125 C7.5625 2.445 7.5625 3.765 7.5625 5.125 C3.9325 5.125 0.3025 5.125 -3.4375 5.125 C-3.7675 6.775 -4.0975 8.425 -4.4375 10.125 C-2.15192595 11.97104058 -0.02725642 13.32593563 2.625 14.625 C7.15752262 16.93947964 7.15752262 16.93947964 8.5625 19.125 C9 22.5625 9 22.5625 8.5625 26.125 C6.69541495 28.48997439 5.24188569 29.78530715 2.5625 31.125 C0.73121229 31.22108608 -1.10369959 31.25482579 -2.9375 31.25 C-3.9171875 31.25257813 -4.896875 31.25515625 -5.90625 31.2578125 C-8.4375 31.125 -8.4375 31.125 -10.4375 30.125 C-10.4375 28.805 -10.4375 27.485 -10.4375 26.125 C-9.15552734 26.14240234 -9.15552734 26.14240234 -7.84765625 26.16015625 C-6.19056641 26.17369141 -6.19056641 26.17369141 -4.5 26.1875 C-3.39785156 26.19910156 -2.29570312 26.21070313 -1.16015625 26.22265625 C1.47697634 26.43762571 1.47697634 26.43762571 2.5625 25.125 C2.60313832 23.45882885 2.605221 21.79111905 2.5625 20.125 C1.79164063 19.72667969 1.02078125 19.32835937 0.2265625 18.91796875 C-0.77632813 18.38816406 -1.77921875 17.85835937 -2.8125 17.3125 C-3.81023437 16.79042969 -4.80796875 16.26835938 -5.8359375 15.73046875 C-8.4375 14.125 -8.4375 14.125 -10.4375 11.125 C-10.8125 8.1875 -10.8125 8.1875 -10.4375 5.125 C-7.24092461 1.18255702 -4.98144008 -0.01635941 0 0 Z " fill="#6A7581" transform="translate(396.4375,676.875)"/>
<path d="M0 0 C0 1.32 0 2.64 0 4 C-3.63 4 -7.26 4 -11 4 C-11.33 5.65 -11.66 7.3 -12 9 C-10.71802734 9.72316406 -10.71802734 9.72316406 -9.41015625 10.4609375 C-8.30542969 11.09257813 -7.20070313 11.72421875 -6.0625 12.375 C-4.96035156 13.00148438 -3.85820312 13.62796875 -2.72265625 14.2734375 C0 16 0 16 1 18 C1.5801105 24.26519337 1.5801105 24.26519337 -0.875 27.375 C-4.334435 30.02045029 -6.31014207 30.11267277 -10.625 30.0625 C-11.62789063 30.05347656 -12.63078125 30.04445313 -13.6640625 30.03515625 C-14.43492187 30.02355469 -15.20578125 30.01195312 -16 30 C-16.33 28.35 -16.66 26.7 -17 25 C-16.22914063 25.01160156 -15.45828125 25.02320313 -14.6640625 25.03515625 C-13.15972656 25.04869141 -13.15972656 25.04869141 -11.625 25.0625 C-10.12839844 25.07990234 -10.12839844 25.07990234 -8.6015625 25.09765625 C-6.01567547 25.18006602 -6.01567547 25.18006602 -4 24 C-4.07823014 21.59353182 -4.07823014 21.59353182 -5 19 C-7.44220761 17.20018579 -7.44220761 17.20018579 -10.4375 15.875 C-15.81165919 13.28251121 -15.81165919 13.28251121 -18 10 C-18.5 7.125 -18.5 7.125 -18 4 C-12.94208843 -1.96574185 -7.2665066 -2.42216887 0 0 Z " fill="#727B87" transform="translate(269,678)"/>
<path d="M0 0 C2.33333333 0 4.66666667 0 7 0 C8.01900391 -0.06960938 8.01900391 -0.06960938 9.05859375 -0.140625 C9.84363281 -0.17671875 10.62867188 -0.2128125 11.4375 -0.25 C12.21996094 -0.29640625 13.00242187 -0.3428125 13.80859375 -0.390625 C16 0 16 0 17.7734375 1.4375 C19.63563809 5.32795729 19.31699747 8.99982664 19.1875 13.25 C19.16719727 14.51070312 19.16719727 14.51070312 19.14648438 15.796875 C19.11123464 17.86485938 19.0574302 19.93251271 19 22 C17.35 22 15.7 22 14 22 C13.67 16.39 13.34 10.78 13 5 C11.35 4.67 9.7 4.34 8 4 C5.06552643 6.93447357 5.53841577 10.18259456 5.375 14.125 C5.33632813 14.87910156 5.29765625 15.63320313 5.2578125 16.41015625 C5.16348969 18.27303184 5.08065338 20.13648255 5 22 C3.35 22 1.7 22 0 22 C0 14.74 0 7.48 0 0 Z " fill="#78828D" transform="translate(683,686)"/>
<path d="M0 0 C2.3925 -0.0825 4.785 -0.165 7.25 -0.25 C7.99668945 -0.28641602 8.74337891 -0.32283203 9.51269531 -0.36035156 C12.6591009 -0.41281986 14.74011028 -0.15132819 17.46875 1.4375 C19.78155466 5.3079078 19.42934629 8.83532207 19.25 13.25 C19.23195313 14.09046875 19.21390625 14.9309375 19.1953125 15.796875 C19.14830798 17.86507395 19.07656724 19.93268441 19 22 C17.35 22 15.7 22 14 22 C13.67 16.39 13.34 10.78 13 5 C11.35 4.67 9.7 4.34 8 4 C5.06552643 6.93447357 5.53841577 10.18259456 5.375 14.125 C5.33632813 14.87910156 5.29765625 15.63320313 5.2578125 16.41015625 C5.16348969 18.27303184 5.08065338 20.13648255 5 22 C3.35 22 1.7 22 0 22 C0 14.74 0 7.48 0 0 Z " fill="#8D95A0" transform="translate(612,686)"/>
<path d="M0 0 C2 2 2 2 2.22265625 4.1015625 C1.75314912 11.49916268 -0.72758841 14.97865563 -6 20 C-7.20850987 21.22899309 -8.41684937 22.45815375 -9.625 23.6875 C-10.74833481 24.79336072 -11.87318732 25.89768325 -13 27 C-13.825 27.825 -14.65 28.65 -15.5 29.5 C-16.86654902 30.86654902 -18.23570487 32.23058085 -19.6171875 33.58203125 C-22.57621362 36.49502807 -25.41902469 39.44359653 -28.10961914 42.60742188 C-32.47306091 47.62014032 -37.15986219 52.28506981 -41.87109375 56.96875 C-42.793423 57.88966431 -43.71575226 58.81057861 -44.66603088 59.75939941 C-47.09188477 62.18147554 -49.52072852 64.60053079 -51.95025635 67.0189209 C-54.43939116 69.49773837 -56.92561895 71.97946797 -59.41210938 74.4609375 C-64.27193458 79.31010924 -69.13493178 84.15608863 -74 89 C-74 86 -74 86 -72.64233398 84.31762695 C-72.01657471 83.71394287 -71.39081543 83.11025879 -70.74609375 82.48828125 C-69.7106543 81.47411133 -69.7106543 81.47411133 -68.65429688 80.43945312 C-67.92275391 79.73755859 -67.19121094 79.03566406 -66.4375 78.3125 C-61.57200211 73.59835337 -56.86896949 68.85037514 -52.46044922 63.7019043 C-50.73138044 61.68696975 -48.98588408 59.7652303 -47 58 C-46.34 58 -45.68 58 -45 58 C-44.76063721 57.43394043 -44.52127441 56.86788086 -44.2746582 56.28466797 C-42.73051588 53.51698287 -40.87054292 51.66244738 -38.60546875 49.4453125 C-37.73212891 48.58292969 -36.85878906 47.72054687 -35.95898438 46.83203125 C-35.04439453 45.93871094 -34.12980469 45.04539062 -33.1875 44.125 C-25.25776655 36.36937189 -25.25776655 36.36937189 -18 28 C-14.26932389 24.0620641 -10.22185735 20.56321032 -6.0859375 17.0625 C-2.27585339 13.29522583 -0.66804889 10.02073338 -0.3125 4.6875 C-0.24675781 3.80449219 -0.18101562 2.92148437 -0.11328125 2.01171875 C-0.07589844 1.34785156 -0.03851562 0.68398438 0 0 Z " fill="#7F9FDA" transform="translate(624,266)"/>
<path d="M0 0 C1.32 0 2.64 0 4 0 C4.06058594 1.14339844 4.12117188 2.28679688 4.18359375 3.46484375 C4.26798428 4.95574305 4.35263302 6.44662775 4.4375 7.9375 C4.47681641 8.69224609 4.51613281 9.44699219 4.55664062 10.22460938 C4.44038024 13.91944187 4.44038024 13.91944187 6 17 C8.45809998 17.2500773 8.45809998 17.2500773 11 17 C13.84614024 14.15385976 13.45579076 11.19630858 13.625 7.375 C13.68300781 6.31539062 13.68300781 6.31539062 13.7421875 5.234375 C13.83647724 3.49001476 13.91932891 1.74504309 14 0 C15.32 0 16.64 0 18 0 C18 7.26 18 14.52 18 22 C16.68 22 15.36 22 14 22 C13.67 21.34 13.34 20.68 13 20 C12.01 20.66 11.02 21.32 10 22 C6.5 22.375 6.5 22.375 3 22 C0.87548348 20.20121027 0.08742171 18.7535788 -0.23388672 15.98388672 C-0.29568805 13.56546287 -0.26117421 11.1680255 -0.1875 8.75 C-0.17396484 7.90953125 -0.16042969 7.0690625 -0.14648438 6.203125 C-0.11123464 4.13514062 -0.0574302 2.06748729 0 0 Z " fill="#707A88" transform="translate(452,686)"/>
<path d="M0 0 C1.32 0 2.64 0 4 0 C4 1.98 4 3.96 4 6 C5.65 6 7.3 6 9 6 C9 7.32 9 8.64 9 10 C7.35 10 5.7 10 4 10 C4 14.62 4 19.24 4 24 C5.65 24 7.3 24 9 24 C9 25.32 9 26.64 9 28 C5.6875 28.25 5.6875 28.25 2 28 C-0.76759851 25.53432133 -0.99550108 24.05638652 -1.29296875 20.328125 C-1.27316751 18.96843965 -1.23759202 17.6089066 -1.1875 16.25 C-1.17396484 15.55261719 -1.16042969 14.85523438 -1.14648438 14.13671875 C-1.1112945 12.42414459 -1.05749155 10.71197059 -1 9 C-1.99 9 -2.98 9 -4 9 C-4 8.01 -4 7.02 -4 6 C-3.01 6 -2.02 6 -1 6 C-1.020625 5.195625 -1.04125 4.39125 -1.0625 3.5625 C-1 1 -1 1 0 0 Z " fill="#757E8A" transform="translate(577,680)"/>
<path d="M0 0 C1.32 0 2.64 0 4 0 C4 1.98 4 3.96 4 6 C5.65 6 7.3 6 9 6 C9 7.32 9 8.64 9 10 C7.35 10 5.7 10 4 10 C4.33 14.29 4.66 18.58 5 23 C6.32 23.33 7.64 23.66 9 24 C9 25.32 9 26.64 9 28 C5.59366036 28.30966724 3.66558669 28.46591068 0.8125 26.46875 C-1.6447806 23.12176436 -1.44543828 20.22641735 -1.25 16.25 C-1.23195313 15.55261719 -1.21390625 14.85523438 -1.1953125 14.13671875 C-1.14838554 12.42388461 -1.07664605 10.71176176 -1 9 C-1.99 9 -2.98 9 -4 9 C-4 8.01 -4 7.02 -4 6 C-3.01 6 -2.02 6 -1 6 C-1.020625 5.195625 -1.04125 4.39125 -1.0625 3.5625 C-1 1 -1 1 0 0 Z " fill="#6C7682" transform="translate(352,680)"/>
<path d="M0 0 C1.32 0 2.64 0 4 0 C4 1.98 4 3.96 4 6 C5.65 6 7.3 6 9 6 C9 6.99 9 7.98 9 9 C7.35 9 5.7 9 4 9 C4.33 13.62 4.66 18.24 5 23 C6.32 23.33 7.64 23.66 9 24 C9 25.32 9 26.64 9 28 C5.6875 28.25 5.6875 28.25 2 28 C-0.76759851 25.53432133 -0.99550108 24.05638652 -1.29296875 20.328125 C-1.27316751 18.96843965 -1.23759202 17.6089066 -1.1875 16.25 C-1.17396484 15.55261719 -1.16042969 14.85523438 -1.14648438 14.13671875 C-1.1112945 12.42414459 -1.05749155 10.71197059 -1 9 C-1.99 9 -2.98 9 -4 9 C-4 8.01 -4 7.02 -4 6 C-2.68 6 -1.36 6 0 6 C0 4.02 0 2.04 0 0 Z " fill="#697381" transform="translate(562,680)"/>
<path d="M0 0 C0.91007813 0.00902344 1.82015625 0.01804687 2.7578125 0.02734375 C3.45648437 0.03894531 4.15515625 0.05054688 4.875 0.0625 C4.875 1.0525 4.875 2.0425 4.875 3.0625 C3.59625 3.18625 2.3175 3.31 1 3.4375 C-2.47290936 3.75292399 -2.47290936 3.75292399 -5.125 6.0625 C-5.443384 8.2023632 -5.443384 8.2023632 -5.375 10.5625 C-5.38015625 11.3565625 -5.3853125 12.150625 -5.390625 12.96875 C-5.31439909 15.28142751 -5.31439909 15.28142751 -3.125 17.0625 C-0.91427023 17.30503813 -0.91427023 17.30503813 1.5 17.1875 C2.31726563 17.16945313 3.13453125 17.15140625 3.9765625 17.1328125 C4.91628906 17.09800781 4.91628906 17.09800781 5.875 17.0625 C5.875 18.3825 5.875 19.7025 5.875 21.0625 C2.40236727 22.79881636 -1.33693013 22.66440402 -5.125 22.0625 C-8.34340301 19.51459761 -10.86034937 17.27081431 -11.36328125 13.07421875 C-11.4963075 8.90839668 -11.51331668 6.68380669 -9.25 3.0625 C-6.04336623 0.04449175 -4.30233368 -0.05515812 0 0 Z " fill="#747E8A" transform="translate(717.125,685.9375)"/>
<path d="M0 0 C3.57011026 3.732388 4.10913442 8.0949989 5 13 C2.36 13 -0.28 13 -3 13 C-3 13.66 -3 14.32 -3 15 C0.3 15 3.6 15 7 15 C7 15.33 7 15.66 7 16 C2.71 16 -1.58 16 -6 16 C-6.33 17.32 -6.66 18.64 -7 20 C-7.33 20.99 -7.66 21.98 -8 23 C-9.65 23 -11.3 23 -13 23 C-11.02 17.39 -9.04 11.78 -7 6 C-5.68 6 -4.36 6 -3 6 C-2.01 4.02 -1.02 2.04 0 0 Z " fill="#75808C" transform="translate(544,684)"/>
<path d="M0 0 C0 1.32 0 2.64 0 4 C-1.8871875 3.9071875 -1.8871875 3.9071875 -3.8125 3.8125 C-6.37705844 3.83065617 -7.71463773 3.8484013 -10 5.0625 C-11.56646819 8.09753213 -11.2989878 10.65133668 -11 14 C-9.37921338 17.17009472 -9.37921338 17.17009472 -6.8359375 17.51171875 C-6.02382813 17.56972656 -5.21171875 17.62773438 -4.375 17.6875 C-3.55773437 17.75324219 -2.74046875 17.81898438 -1.8984375 17.88671875 C-1.27195312 17.92410156 -0.64546875 17.96148438 0 18 C-0.33 19.32 -0.66 20.64 -1 22 C-9.00826446 22.78512397 -9.00826446 22.78512397 -13 19.625 C-16.00026411 15.68715336 -16.42651284 13.20280348 -16.32421875 8.33203125 C-15.91386145 5.38042513 -14.90718487 3.1969349 -12.84375 1.01953125 C-8.93582061 -1.14142123 -4.31047035 -0.40764518 0 0 Z " fill="#68727F" transform="translate(447,686)"/>
<path d="M0 0 C0.99 0.66 1.98 1.32 3 2 C3.3984375 4.27734375 3.3984375 4.27734375 3.375 6.9375 C3.38273438 7.81277344 3.39046875 8.68804688 3.3984375 9.58984375 C2.92864412 12.4316331 2.31262181 13.32646337 0 15 C-3.0625 15.375 -3.0625 15.375 -6 15 C-8.06520632 11.90219052 -8.29477024 11.0459519 -8.3125 7.5 C-8.32925781 6.7265625 -8.34601562 5.953125 -8.36328125 5.15625 C-7.54853807 0.320355 -4.48059218 -0.56007402 0 0 Z " fill="#F6F7F7" transform="translate(648,689)"/>
<path d="M0 0 C1.74861792 -0.10853491 3.49919241 -0.18583428 5.25 -0.25 C6.22453125 -0.29640625 7.1990625 -0.3428125 8.203125 -0.390625 C11 0 11 0 13.3125 1.46875 C15.75683256 5.13524885 15.67117244 8.42881667 15.75 12.75 C15.77964844 13.54277344 15.80929687 14.33554687 15.83984375 15.15234375 C15.91027787 17.10102094 15.95743482 19.05051495 16 21 C14.68 21 13.36 21 12 21 C12 20.34 12 19.68 12 19 C11.34 18.67 10.68 18.34 10 18 C10.33 15.69 10.66 13.38 11 11 C8.69 11 6.38 11 4 11 C4.33 10.34 4.66 9.68 5 9 C6.65 9 8.3 9 10 9 C9.67 7.35 9.34 5.7 9 4 C3.91696314 3.88679144 3.91696314 3.88679144 -1 5 C-0.67 3.35 -0.34 1.7 0 0 Z " fill="#747E8A" transform="translate(313,686)"/>
<path d="M0 0 C1.76949095 -0.10815225 3.54087487 -0.18566083 5.3125 -0.25 C6.29863281 -0.29640625 7.28476562 -0.3428125 8.30078125 -0.390625 C11 0 11 0 12.84375 1.5625 C14.42762369 4.90147697 14.28963827 7.57302218 14.1875 11.25 C14.16042969 12.51328125 14.13335938 13.7765625 14.10546875 15.078125 C14.07066406 16.04234375 14.03585937 17.0065625 14 18 C14.66 18 15.32 18 16 18 C16 19.32 16 20.64 16 22 C14.35 22 12.7 22 11 22 C11 21.01 11 20.02 11 19 C10.01 19 9.02 19 8 19 C8.66 16.03 9.32 13.06 10 10 C7.03 9.505 7.03 9.505 4 9 C4 8.67 4 8.34 4 8 C5.98 8 7.96 8 10 8 C9.34 6.68 8.68 5.36 8 4 C4.65747276 3.92572162 2.1964086 3.93453047 -1 5 C-0.67 3.35 -0.34 1.7 0 0 Z " fill="#6F7987" transform="translate(663,686)"/>
<path d="M0 0 C1.32 0 2.64 0 4 0 C4.33 0.66 4.66 1.32 5 2 C5.66 1.34 6.32 0.68 7 0 C9.625 -0.125 9.625 -0.125 12 0 C12 0.99 12 1.98 12 3 C10.7934375 3.4640625 10.7934375 3.4640625 9.5625 3.9375 C7.10919595 4.76335345 7.10919595 4.76335345 6 6 C5.76321284 8.69235776 5.57801975 11.36498156 5.4375 14.0625 C5.39431641 14.82111328 5.35113281 15.57972656 5.30664062 16.36132812 C5.20026367 18.24065438 5.09960066 20.12030244 5 22 C3.35 22 1.7 22 0 22 C0 14.74 0 7.48 0 0 Z " fill="#7B8591" transform="translate(476,686)"/>
<path d="M0 0 C2.625 1.625 2.625 1.625 4 4 C3.5859375 7.1484375 3.5859375 7.1484375 3 10 C0.87436897 9.88623383 -1.2505261 9.75864369 -3.375 9.625 C-4.55835938 9.55539062 -5.74171875 9.48578125 -6.9609375 9.4140625 C-10 9 -10 9 -12 7 C-12.66 7.66 -13.32 8.32 -14 9 C-13.67357189 6.06214703 -13.1175594 4.18123741 -11.5 1.6875 C-7.77661218 -0.82578678 -4.36026889 -0.78261237 0 0 Z " fill="#6D7886" transform="translate(603,686)"/>
<path d="M0 0 C2.62901288 1.52206009 4.84365964 2.84365964 7 5 C7.44678306 9.02104757 7.6808704 11.13756416 5.125 14.375 C1.71818406 16.98021219 -0.25013723 17.13618385 -4.5 17.125 C-5.4796875 17.12757813 -6.459375 17.13015625 -7.46875 17.1328125 C-10 17 -10 17 -12 16 C-12 14.68 -12 13.36 -12 12 C-10.71802734 12.01740234 -10.71802734 12.01740234 -9.41015625 12.03515625 C-7.75306641 12.04869141 -7.75306641 12.04869141 -6.0625 12.0625 C-4.40927734 12.07990234 -4.40927734 12.07990234 -2.72265625 12.09765625 C-0.08552366 12.31262571 -0.08552366 12.31262571 1 11 C1.2500773 8.54190002 1.2500773 8.54190002 1 6 C0.34 5.34 -0.32 4.68 -1 4 C-0.625 1.875 -0.625 1.875 0 0 Z " fill="#757F8C" transform="translate(398,691)"/>
<path d="M0 0 C2.16796875 0.35546875 2.16796875 0.35546875 4.79296875 2.10546875 C6.16796875 4.35546875 6.16796875 4.35546875 6.04296875 6.54296875 C5.16796875 8.35546875 5.16796875 8.35546875 3.16796875 9.35546875 C1.2941727 9.42580644 -0.58204227 9.43977095 -2.45703125 9.41796875 C-3.45992188 9.40894531 -4.4628125 9.39992188 -5.49609375 9.390625 C-6.26695312 9.37902344 -7.0378125 9.36742187 -7.83203125 9.35546875 C-7.83203125 8.03546875 -7.83203125 6.71546875 -7.83203125 5.35546875 C-9.81203125 6.34546875 -9.81203125 6.34546875 -11.83203125 7.35546875 C-9.0768583 1.2093137 -6.63664889 -0.22735665 0 0 Z " fill="#6F7987" transform="translate(501.83203125,685.64453125)"/>
<path d="M0 0 C4 0 8 0 12 0 C12 0.99 12 1.98 12 3 C11.21625 3.28875 10.4325 3.5775 9.625 3.875 C6.90328368 4.84912254 6.90328368 4.84912254 5 7 C4.69940057 9.36509361 4.50484988 11.74441881 4.375 14.125 C4.26285156 16.04699219 4.26285156 16.04699219 4.1484375 18.0078125 C4.09945313 18.99523437 4.05046875 19.98265625 4 21 C2.68 21 1.36 21 0 21 C0 14.07 0 7.14 0 0 Z " fill="#717B89" transform="translate(334,686)"/>
<path d="M0 0 C2 2 2 2 2.22265625 4.1015625 C1.75314912 11.49916268 -0.72758841 14.97865563 -6 20 C-7.20850987 21.22899309 -8.41684937 22.45815375 -9.625 23.6875 C-10.74833481 24.79336072 -11.87318732 25.89768325 -13 27 C-13.825 27.825 -14.65 28.65 -15.5 29.5 C-16.9134236 30.9134236 -18.33018472 32.32358102 -19.7578125 33.72265625 C-22.74896987 36.67001006 -25.62795623 39.51170033 -28 43 C-28.99 42.67 -29.98 42.34 -31 42 C-30.48050781 41.49210937 -29.96101562 40.98421875 -29.42578125 40.4609375 C-24.69245109 35.79991984 -24.69245109 35.79991984 -20.3125 30.8125 C-16.06458655 25.64611878 -11.17645794 21.37119989 -6.0859375 17.0625 C-2.27585339 13.29522583 -0.66804889 10.02073338 -0.3125 4.6875 C-0.24675781 3.80449219 -0.18101562 2.92148437 -0.11328125 2.01171875 C-0.07589844 1.34785156 -0.03851562 0.68398438 0 0 Z " fill="#8EADDF" transform="translate(624,266)"/>
<path d="M0 0 C7.99180328 -0.6147541 7.99180328 -0.6147541 11.5625 1.5625 C13 4 13 4 13 11 C8.38 11 3.76 11 -1 11 C-1 10.34 -1 9.68 -1 9 C2.3 9 5.6 9 9 9 C8.34 7.35 7.68 5.7 7 4 C3.95613276 3.91773332 1.92824652 4.02391783 -1 5 C-0.67 3.35 -0.34 1.7 0 0 Z " fill="#6E7986" transform="translate(731,686)"/>
<path d="M0 0 C1.32 0 2.64 0 4 0 C4 1.32 4 2.64 4 4 C4.66 4.33 5.32 4.66 6 5 C5.67 5.33 5.34 5.66 5 6 C4.76346477 8.52596259 4.57826308 11.03107207 4.4375 13.5625 C4.39431641 14.27341797 4.35113281 14.98433594 4.30664062 15.71679688 C4.20028223 17.47761912 4.09961154 19.2387832 4 21 C2.68 21 1.36 21 0 21 C0 14.07 0 7.14 0 0 Z " fill="#646F7C" transform="translate(275,686)"/>
<path d="M0 0 C1.32 0 2.64 0 4 0 C4 6.93 4 13.86 4 21 C3.01 21 2.02 21 1 21 C1 20.01 1 19.02 1 18 C0.34 17.67 -0.32 17.34 -1 17 C-0.67 11.39 -0.34 5.78 0 0 Z " fill="#5F6B79" transform="translate(466,686)"/>
<path d="M0 0 C0.33 0 0.66 0 1 0 C1.33 2.64 1.66 5.28 2 8 C2.33 8 2.66 8 3 8 C3.33 6.02 3.66 4.04 4 2 C4.33 2 4.66 2 5 2 C5.33 5.63 5.66 9.26 6 13 C7.32 13.33 8.64 13.66 10 14 C10 15.32 10 16.64 10 18 C6.6875 18.25 6.6875 18.25 3 18 C0.33915287 15.58104807 0.01338843 14.15780496 -0.29296875 10.546875 C-0.25816406 9.29390625 -0.22335937 8.0409375 -0.1875 6.75 C-0.16042969 5.48671875 -0.13335938 4.2234375 -0.10546875 2.921875 C-0.07066406 1.95765625 -0.03585937 0.9934375 0 0 Z " fill="#7D8691" transform="translate(561,690)"/>
<path d="M0 0 C2.97 0.495 2.97 0.495 6 1 C6 1.99 6 2.98 6 4 C5.34 4.66 4.68 5.32 4 6 C3.69940057 8.36509361 3.50484988 10.74441881 3.375 13.125 C3.30023437 14.40632812 3.22546875 15.68765625 3.1484375 17.0078125 C3.09945312 17.99523437 3.05046875 18.98265625 3 20 C2.01 20 1.02 20 0 20 C0 13.4 0 6.8 0 0 Z " fill="#6A7583" transform="translate(613,687)"/>
<path d="M0 0 C0.66 0 1.32 0 2 0 C2.33 0.804375 2.66 1.60875 3 2.4375 C4.72634103 5.2048032 4.72634103 5.2048032 7.41796875 5.5546875 C9.95036306 5.79042519 12.45752277 5.94752861 15 6 C15 6.99 15 7.98 15 9 C11.27642003 10.24119332 7.86210595 10.6674319 4 10 C0.9375 7.8125 0.9375 7.8125 -1 5 C-0.8125 2.1875 -0.8125 2.1875 0 0 Z " fill="#6E7984" transform="translate(728,698)"/>
<path d="M0 0 C3.33773709 3.64116773 3.97864902 7.28607242 5 12 C2.03 12 -0.94 12 -4 12 C-3.45660208 7.43545749 -2.20536179 4.0271824 0 0 Z " fill="#EEEFF1" transform="translate(544,684)"/>
<path d="M0 0 C0.99 0 1.98 0 3 0 C3.95946595 4.61965088 3.96102244 8.68129125 3.5625 13.375 C3.46066406 14.62023437 3.35882812 15.86546875 3.25390625 17.1484375 C3.17011719 18.08945312 3.08632813 19.03046875 3 20 C2.01 20 1.02 20 0 20 C0 13.4 0 6.8 0 0 Z " fill="#636F7F" transform="translate(684,687)"/>
<path d="M0 0 C0.66 0.33 1.32 0.66 2 1 C2 5.62 2 10.24 2 15 C2.66 15 3.32 15 4 15 C4 16.32 4 17.64 4 19 C2.35 19 0.7 19 -1 19 C-1 18.01 -1 17.02 -1 16 C-1.99 16 -2.98 16 -4 16 C-3.67 15.01 -3.34 14.02 -3 13 C-2.34 12.67 -1.68 12.34 -1 12 C-0.53101037 9.1840151 -0.53101037 9.1840151 -0.375 5.9375 C-0.30023437 4.83277344 -0.22546875 3.72804688 -0.1484375 2.58984375 C-0.09945312 1.73519531 -0.05046875 0.88054688 0 0 Z " fill="#687382" transform="translate(675,689)"/>
<path d="M0 0 C3.60964568 0 5.72921858 0.03087958 9 1 C7.515 3.475 7.515 3.475 6 6 C5.34 5.67 4.68 5.34 4 5 C4 3.68 4 2.36 4 1 C3.01 1 2.02 1 1 1 C1 7.6 1 14.2 1 21 C1.99 21 2.98 21 4 21 C4 16.38 4 11.76 4 7 C4.33 7 4.66 7 5 7 C5 11.95 5 16.9 5 22 C3.35 22 1.7 22 0 22 C0 14.74 0 7.48 0 0 Z " fill="#919AA4" transform="translate(683,686)"/>
<path d="M0 0 C0.33 0 0.66 0 1 0 C1.33 1.98 1.66 3.96 2 6 C2.99 4.68 3.98 3.36 5 2 C5.66 4.97 6.32 7.94 7 11 C8.65 11.33 10.3 11.66 12 12 C9.36095629 13.41377341 6.92879371 14.37240135 4 15 C1.49464087 12.65122581 0.09435091 10.9088213 -0.265625 7.44140625 C-0.25149142 4.95036325 -0.17369194 2.48475972 0 0 Z " fill="#788390" transform="translate(635,692)"/>
<path d="M0 0 C1.77049689 -0.05410687 3.54146849 -0.09284119 5.3125 -0.125 C6.29863281 -0.14820313 7.28476562 -0.17140625 8.30078125 -0.1953125 C11 0 11 0 14 2 C12.84826645 4.46800047 11.95216435 6.04783565 10 8 C9.67 6.68 9.34 5.36 9 4 C3.91696314 3.88679144 3.91696314 3.88679144 -1 5 C-0.67 3.35 -0.34 1.7 0 0 Z " fill="#75808B" transform="translate(313,686)"/>
<path d="M0 0 C0.125 2.375 0.125 2.375 0 5 C-2 7 -2 7 -5.125 7.125 C-6.548125 7.063125 -6.548125 7.063125 -8 7 C-8.33 5.35 -8.66 3.7 -9 2 C-5.5647952 -0.29013653 -4.014669 -0.17842973 0 0 Z " fill="#EDEFF1" transform="translate(673,697)"/>
<path d="M0 0 C0.33 1.32 0.66 2.64 1 4 C3.64 4.66 6.28 5.32 9 6 C9 6.66 9 7.32 9 8 C5.98675805 9.50662097 3.31713623 9.17770373 0 9 C-2 7 -2 7 -2.125 3.875 C-2.08375 2.92625 -2.0425 1.9775 -2 1 C-1.34 0.67 -0.68 0.34 0 0 Z " fill="#7A838E" transform="translate(313,699)"/>
<path d="M0 0 C0.928125 0.2784375 0.928125 0.2784375 1.875 0.5625 C6.3323206 1.18652488 10.55486111 0.56103695 15 0 C15 1.32 15 2.64 15 4 C10.35591467 5.54802844 6.54040175 5.72103912 2.0625 3.625 C1.381875 3.08875 0.70125 2.5525 0 2 C0 1.34 0 0.68 0 0 Z " fill="#69737E" transform="translate(411,703)"/>
<path d="M0 0 C2.5 0.25 2.5 0.25 4.5 2.25 C4.5 3.57 4.5 4.89 4.5 6.25 C1.2 6.25 -2.1 6.25 -5.5 6.25 C-4.03846154 0.40384615 -4.03846154 0.40384615 0 0 Z " fill="#EBEDEE" transform="translate(598.5,688.75)"/>
<path d="M0 0 C2.5 0.25 2.5 0.25 4.5 2.25 C4.5 3.57 4.5 4.89 4.5 6.25 C1.2 6.25 -2.1 6.25 -5.5 6.25 C-4.03846154 0.40384615 -4.03846154 0.40384615 0 0 Z " fill="#ECEDEE" transform="translate(418.5,688.75)"/>
<path d="M0 0 C2.5625 0.1875 2.5625 0.1875 4.5625 2.1875 C4.5625 3.5075 4.5625 4.8275 4.5625 6.1875 C1.2625 6.1875 -2.0375 6.1875 -5.4375 6.1875 C-3.15091463 0.24237805 -3.15091463 0.24237805 0 0 Z " fill="#EDEEF0" transform="translate(499.4375,688.8125)"/>
<path d="M0 0 C2.5625 0.1875 2.5625 0.1875 4.5625 2.1875 C4.5625 3.5075 4.5625 4.8275 4.5625 6.1875 C1.2625 6.1875 -2.0375 6.1875 -5.4375 6.1875 C-3.15091463 0.24237805 -3.15091463 0.24237805 0 0 Z " fill="#EEF0F1" transform="translate(735.4375,688.8125)"/>
<path d="M0 0 C2 2 2 2 2.22265625 4.1015625 C1.764253 11.32420882 -0.62740434 15.21393225 -6 20 C-6.99 20.66 -7.98 21.32 -9 22 C-9 21.01 -9 20.02 -9 19 C-7.34211215 17.65576661 -5.67423683 16.32381517 -4 15 C-0.31638032 10.52703324 -0.31379497 5.57256581 0 0 Z " fill="#92B0E6" transform="translate(624,266)"/>
<path d="M0 0 C1.134375 0.020625 2.26875 0.04125 3.4375 0.0625 C2.5625 4.9375 2.5625 4.9375 1.4375 6.0625 C-0.22867115 6.10313832 -1.89638095 6.105221 -3.5625 6.0625 C-3.94468767 4.40635343 -4.27645102 2.73792976 -4.5625 1.0625 C-3.5625 0.0625 -3.5625 0.0625 0 0 Z " fill="#FBFBFC" transform="translate(319.5625,697.9375)"/>
<path d="M0 0 C0.99 0.33 1.98 0.66 3 1 C3 5.62 3 10.24 3 15 C2.01 15 1.02 15 0 15 C0 10.05 0 5.1 0 0 Z " fill="#5A6876" transform="translate(627,692)"/>
<path d="M0 0 C0.66 0.33 1.32 0.66 2 1 C2 2.65 2 4.3 2 6 C-2.62 6 -7.24 6 -12 6 C-12 5.34 -12 4.68 -12 4 C-8.37 4 -4.74 4 -1 4 C-0.67 2.68 -0.34 1.36 0 0 Z " fill="#596674" transform="translate(742,691)"/>
<path d="M0 0 C0.33 0 0.66 0 1 0 C1 5.94 1 11.88 1 18 C-0.32 18 -1.64 18 -3 18 C-3 15.36 -3 12.72 -3 10 C-2.34 10.66 -1.68 11.32 -1 12 C-0.67 8.04 -0.34 4.08 0 0 Z " fill="#76818B" transform="translate(305,689)"/>
<path d="M0 0 C1.43739513 -0.02712066 2.87493863 -0.04645067 4.3125 -0.0625 C5.51326172 -0.07990234 5.51326172 -0.07990234 6.73828125 -0.09765625 C9 0 9 0 12 1 C12 2.32 12 3.64 12 5 C10.56163249 4.88541307 9.12429034 4.75790884 7.6875 4.625 C6.88699219 4.55539062 6.08648437 4.48578125 5.26171875 4.4140625 C3 4 3 4 0 2 C0 1.34 0 0.68 0 0 Z " fill="#7B8390" transform="translate(392,677)"/>
<path d="M0 0 C0.33 1.32 0.66 2.64 1 4 C-2.21451269 5.60725635 -5.43612536 5.05748185 -9 5 C-9.33 4.34 -9.66 3.68 -10 3 C-9.01 3 -8.02 3 -7 3 C-7 2.34 -7 1.68 -7 1 C-3.535 0.505 -3.535 0.505 0 0 Z " fill="#727B87" transform="translate(506,703)"/>
<path d="M0 0 C2 3 2 3 2 6 C-2.95 6 -7.9 6 -13 6 C-13 5.34 -13 4.68 -13 4 C-7.06 3.505 -7.06 3.505 -1 3 C-0.67 2.01 -0.34 1.02 0 0 Z " fill="#5A6777" transform="translate(506,691)"/>
<path d="M0 0 C0.66 0.33 1.32 0.66 2 1 C2 2.65 2 4.3 2 6 C-2.29 6 -6.58 6 -11 6 C-11.33 5.34 -11.66 4.68 -12 4 C-8.37 4 -4.74 4 -1 4 C-0.67 2.68 -0.34 1.36 0 0 Z " fill="#5B6774" transform="translate(425,691)"/>
<path d="M0 0 C5.75 1.75 5.75 1.75 8 4 C7.34 4 6.68 4 6 4 C6 4.66 6 5.32 6 6 C0.25 5.125 0.25 5.125 -2 4 C-2 3.34 -2 2.68 -2 2 C-1.34 2 -0.68 2 0 2 C0 1.34 0 0.68 0 0 Z " fill="#697481" transform="translate(258,689)"/>
<path d="M0 0 C3.63 0 7.26 0 11 0 C11 1.32 11 2.64 11 4 C7.37 3.67 3.74 3.34 0 3 C0 2.01 0 1.02 0 0 Z " fill="#676F7C" transform="translate(258,678)"/>
<path d="M0 0 C-0.5653911 3.50695293 -1.68722726 5.02732613 -4.375 7.3125 C-4.98085938 7.84488281 -5.58671875 8.37726563 -6.2109375 8.92578125 C-6.80132813 9.28027344 -7.39171875 9.63476562 -8 10 C-8.99 9.67 -9.98 9.34 -11 9 C-9.54782324 7.49403892 -8.08807139 5.99537896 -6.625 4.5 C-5.40683594 3.24703125 -5.40683594 3.24703125 -4.1640625 1.96875 C-2 0 -2 0 0 0 Z " fill="#1250A6" transform="translate(609,296)"/>
<path d="M0 0 C4.19469571 0.59924224 8.00999834 1.57499941 12 3 C12 3.33 12 3.66 12 4 C8.04 4 4.08 4 0 4 C0 2.68 0 1.36 0 0 Z " fill="#667281" transform="translate(386,703)"/>
<path d="M0 0 C3.63 0.33 7.26 0.66 11 1 C11 1.33 11 1.66 11 2 C9.02 2.33 7.04 2.66 5 3 C7.31 3.33 9.62 3.66 12 4 C12 4.33 12 4.66 12 5 C8.37 5 4.74 5 1 5 C0.67 3.35 0.34 1.7 0 0 Z " fill="#7C848F" transform="translate(252,703)"/>
<path d="M0 0 C2 2 2 2 2.125 5.125 C2.08375 6.07375 2.0425 7.0225 2 8 C0.02 8.99 0.02 8.99 -2 10 C-2 7.03 -2 4.06 -2 1 C-1.34 0.67 -0.68 0.34 0 0 Z " fill="#68727E" transform="translate(708,691)"/>
<path d="M0 0 C3.3 0 6.6 0 10 0 C10 0.99 10 1.98 10 3 C6.7 3.33 3.4 3.66 0 4 C-0.33 3.34 -0.66 2.68 -1 2 C-0.67 1.34 -0.34 0.68 0 0 Z " fill="#6E7783" transform="translate(712,686)"/>
<path d="M0 0 C0.99 0.33 1.98 0.66 3 1 C-0.63 4.63 -4.26 8.26 -8 12 C-8.33 11.01 -8.66 10.02 -9 9 C-6.03 6.03 -3.06 3.06 0 0 Z " fill="#759AD7" transform="translate(592,309)"/>
<path d="M0 0 C0.33 0 0.66 0 1 0 C1 7.59 1 15.18 1 23 C0.67 23 0.34 23 0 23 C0 18.05 0 13.1 0 8 C-0.99 8 -1.98 8 -3 8 C-3 7.01 -3 6.02 -3 5 C-2.01 5 -1.02 5 0 5 C0 3.35 0 1.7 0 0 Z " fill="#939AA3" transform="translate(351,681)"/>
<path d="M0 0 C-0.33 0.66 -0.66 1.32 -1 2 C-3.28515625 2.4140625 -3.28515625 2.4140625 -6.0625 2.625 C-6.98160156 2.69976563 -7.90070312 2.77453125 -8.84765625 2.8515625 C-9.55792969 2.90054688 -10.26820313 2.94953125 -11 3 C-11 2.34 -11 1.68 -11 1 C-6.8204355 -1.78637633 -4.85331323 -0.79562512 0 0 Z " fill="#7B8693" transform="translate(674,705)"/>
<path d="M0 0 C3.63 0 7.26 0 11 0 C11 1.32 11 2.64 11 4 C8.69 3.67 6.38 3.34 4 3 C4 2.34 4 1.68 4 1 C2.35 1.33 0.7 1.66 -1 2 C-0.67 1.34 -0.34 0.68 0 0 Z " fill="#79818D" transform="translate(436,686)"/>
<path d="M0 0 C0 1.32 0 2.64 0 4 C-2.52475462 5.26237731 -4.31200466 5.09856404 -7.125 5.0625 C-8.03507813 5.05347656 -8.94515625 5.04445313 -9.8828125 5.03515625 C-10.58148437 5.02355469 -11.28015625 5.01195312 -12 5 C-12 4.67 -12 4.34 -12 4 C-9.36 3.67 -6.72 3.34 -4 3 C-5.65 2.67 -7.3 2.34 -9 2 C-9 1.67 -9 1.34 -9 1 C-2.25 0 -2.25 0 0 0 Z " fill="#838C98" transform="translate(606,703)"/>
<path d="M0 0 C1.8141927 0.28094582 3.62635001 0.57506433 5.4375 0.875 C6.95150391 1.11863281 6.95150391 1.11863281 8.49609375 1.3671875 C9.32238281 1.57601562 10.14867187 1.78484375 11 2 C11.33 2.66 11.66 3.32 12 4 C8.7 4 5.4 4 2 4 C1.34 2.68 0.68 1.36 0 0 Z " fill="#5E6977" transform="translate(591,703)"/>
<path d="M0 0 C0.66 0.33 1.32 0.66 2 1 C2 2.98 2 4.96 2 7 C-0.97 6.67 -3.94 6.34 -7 6 C-6.67 5.34 -6.34 4.68 -6 4 C-3.4375 3.375 -3.4375 3.375 -1 3 C-0.67 2.01 -0.34 1.02 0 0 Z " fill="#6B7784" transform="translate(324,691)"/>
<path d="M0 0 C0.66 0.33 1.32 0.66 2 1 C2.33 1.99 2.66 2.98 3 4 C2.67 4.33 2.34 4.66 2 5 C1.63239269 7.32817964 1.29758419 9.6618385 1 12 C0.67 12 0.34 12 0 12 C-2 5.375 -2 5.375 -2 2 C-1.34 1.34 -0.68 0.68 0 0 Z " fill="#7C858F" transform="translate(710,687)"/>
<path d="M0 0 C2.875 -0.1875 2.875 -0.1875 6 0 C6.66 0.99 7.32 1.98 8 3 C5.03 3.66 2.06 4.32 -1 5 C-0.67 3.35 -0.34 1.7 0 0 Z " fill="#858F9A" transform="translate(313,686)"/>
<path d="M0 0 C-0.8125 1.9375 -0.8125 1.9375 -2 4 C-5 5 -5 5 -8 5 C-7.1875 3.0625 -7.1875 3.0625 -6 1 C-3 0 -3 0 0 0 Z " fill="#6A7480" transform="translate(440,687)"/>
<path d="M0 0 C1.65 0 3.3 0 5 0 C4.67 1.65 4.34 3.3 4 5 C2.68 5 1.36 5 0 5 C0 3.35 0 1.7 0 0 Z " fill="#737C89" transform="translate(513,703)"/>
<path d="M0 0 C2 3 2 3 2 6 C2.99 6.33 3.98 6.66 5 7 C3.68 7 2.36 7 1 7 C0.67 6.34 0.34 5.68 0 5 C-0.99 5.33 -1.98 5.66 -3 6 C-3 5.34 -3 4.68 -3 4 C-3.99 3.67 -4.98 3.34 -6 3 C-5.195625 2.690625 -4.39125 2.38125 -3.5625 2.0625 C-1.10919595 1.23664655 -1.10919595 1.23664655 0 0 Z " fill="#88909A" transform="translate(465,701)"/>
<path d="M0 0 C1.65 0 3.3 0 5 0 C4.67 1.65 4.34 3.3 4 5 C2.68 5 1.36 5 0 5 C0 3.35 0 1.7 0 0 Z " fill="#7B8693" transform="translate(365,703)"/>
<path d="M0 0 C1.65 0 3.3 0 5 0 C4.67 1.65 4.34 3.3 4 5 C2.68 4.67 1.36 4.34 0 4 C0 2.68 0 1.36 0 0 Z " fill="#727F92" transform="translate(749,703)"/>
<path d="M0 0 C2.31 0 4.62 0 7 0 C7 1.32 7 2.64 7 4 C3.37 4 -0.26 4 -4 4 C-4 3.67 -4 3.34 -4 3 C0.455 2.505 0.455 2.505 5 2 C3.35 1.67 1.7 1.34 0 1 C0 0.67 0 0.34 0 0 Z " fill="#86909A" transform="translate(392,704)"/>
<path d="M0 0 C1.32 0.66 2.64 1.32 4 2 C1.74259377 4.33524782 -0.2805761 6.18705073 -3 8 C-2.45276317 4.62537285 -1.9451 2.91765 0 0 Z " fill="#78818D" transform="translate(592,687)"/>
<path d="M0 0 C0.99 0.33 1.98 0.66 3 1 C3.6875 3.0625 3.6875 3.0625 4 5 C3.34 5 2.68 5 2 5 C1.01 6.485 1.01 6.485 0 8 C-0.66 6.02 -1.32 4.04 -2 2 C-1.34 1.34 -0.68 0.68 0 0 Z " fill="#7D8690" transform="translate(740,687)"/>
<path d="M0 0 C0 1.32 0 2.64 0 4 C-3.47325181 5.1577506 -6.36067448 5.06866652 -10 5 C-10 4.67 -10 4.34 -10 4 C-8.02 4 -6.04 4 -4 4 C-4 3.01 -4 2.02 -4 1 C-2 0 -2 0 0 0 Z " fill="#7F8891" transform="translate(426,703)"/>
<path d="M0 0 C0.33 0.99 0.66 1.98 1 3 C-1.31 5.31 -3.62 7.62 -6 10 C-6.66 9.67 -7.32 9.34 -8 9 C-5.36 6.03 -2.72 3.06 0 0 Z " fill="#8CA9DE" transform="translate(570,331)"/>
<path d="M0 0 C0.66 0 1.32 0 2 0 C0.44499019 3.81684226 -2.03595495 6.19195732 -5 9 C-5 4.68381834 -2.86729652 3.07210341 0 0 Z " fill="#82A5DF" transform="translate(613,287)"/>
<path d="M0 0 C0.33 0 0.66 0 1 0 C1 2.97 1 5.94 1 9 C0.01 9 -0.98 9 -2 9 C-2 7.02 -2 5.04 -2 3 C-1.34 3 -0.68 3 0 3 C0 2.01 0 1.02 0 0 Z " fill="#576370" transform="translate(564,690)"/>
<path d="M0 0 C0.33 0 0.66 0 1 0 C1 4.62 1 9.24 1 14 C-0.32 13.67 -1.64 13.34 -3 13 C-2.34 12.34 -1.68 11.68 -1 11 C-0.53709779 8.33757179 -0.53709779 8.33757179 -0.375 5.375 C-0.30023438 4.37210938 -0.22546875 3.36921875 -0.1484375 2.3359375 C-0.09945313 1.56507813 -0.05046875 0.79421875 0 0 Z " fill="#002376" transform="translate(357,625)"/>
<path d="M0 0 C0.99 0 1.98 0 3 0 C3.33 0.99 3.66 1.98 4 3 C1.03 5.475 1.03 5.475 -2 8 C-1.47731534 5.23723823 -0.89130413 2.6739124 0 0 Z " fill="#7F8A96" transform="translate(537,690)"/>
<path d="M0 0 C0.99 0.99 1.98 1.98 3 3 C2.01 3.99 1.02 4.98 0 6 C0 5.34 0 4.68 0 4 C-1.98 4.99 -1.98 4.99 -4 6 C-2.84826645 3.53199953 -1.95216435 1.95216435 0 0 Z " fill="#798593" transform="translate(494,687)"/>
<path d="M0 0 C2.5 1.3125 2.5 1.3125 5 3 C5 3.99 5 4.98 5 6 C5.3062434 7.33981486 5.63451555 8.67511887 6 10 C2.51668565 6.98112756 1.20842856 4.43090471 0 0 Z " fill="#0C408E" transform="translate(441,391)"/>
<path d="M0 0 C-2.17424117 2.50037734 -3.73045798 3.43628586 -7 4 C-6.6875 2.0625 -6.6875 2.0625 -6 0 C-3 -1 -3 -1 0 0 Z " fill="#6C7885" transform="translate(643,689)"/>
<path d="M0 0 C1.32 1.65 2.64 3.3 4 5 C1.92446352 5.5534764 0.15634036 6 -2 6 C-1.34 4.02 -0.68 2.04 0 0 Z " fill="#737D8A" transform="translate(592,698)"/>
<path d="M0 0 C1.65 0.33 3.3 0.66 5 1 C5 2.32 5 3.64 5 5 C3.02 4.34 1.04 3.68 -1 3 C-0.67 2.01 -0.34 1.02 0 0 Z " fill="#707A86" transform="translate(646,686)"/>
</svg>
